<svg xmlns="http://www.w3.org/2000/svg" viewBox="0 0 64 64" role="img" aria-label="Четырехлистный клевер">
  <defs>
    <radialGradient id="leafGradient" cx="35%" cy="30%" r="75%">
      <stop offset="0%" stop-color="#86efac"/>
      <stop offset="55%" stop-color="#22c55e"/>
      <stop offset="100%" stop-color="#15803d"/>
    </radialGradient>
    <linearGradient id="stemGradient" x1="22" y1="58" x2="45" y2="34" gradientUnits="userSpaceOnUse">
      <stop offset="0%" stop-color="#166534"/>
      <stop offset="100%" stop-color="#22c55e"/>
    </linearGradient>
  </defs>
  <rect width="64" height="64" rx="14" fill="#f0fdf4"/>
  <path d="M31.5 37 C29 46 25 54 16 58" fill="none" stroke="url(#stemGradient)" stroke-width="5" stroke-linecap="round"/>
  <path d="M31.9 30.4 C21.2 20 10 24.5 10 34.5 C10 44.4 24.7 45.1 31.9 34.1 C39.1 45.1 53.8 44.4 53.8 34.5 C53.8 24.5 42.6 20 31.9 30.4Z" fill="url(#leafGradient)"/>
  <path d="M31.9 30.4 C42.3 19.7 37.8 8.5 27.8 8.5 C17.9 8.5 17.2 23.2 28.2 30.4 C17.2 37.6 17.9 52.3 27.8 52.3 C37.8 52.3 42.3 41.1 31.9 30.4Z" fill="url(#leafGradient)"/>
  <circle cx="31.9" cy="30.4" r="5.2" fill="#166534" opacity="0.28"/>
  <path d="M20.5 33.3 C24.5 31.6 28.4 31 31.9 30.4 M31.9 30.4 C35.5 31 39.3 31.6 43.3 33.3 M31.9 30.4 C30.2 26.4 29.6 22.6 29 19 M31.9 30.4 C33.6 34.4 34.2 38.2 34.8 41.8" fill="none" stroke="#bbf7d0" stroke-width="2" stroke-linecap="round" opacity="0.65"/>
</svg>
